<?xml version="1.0" standalone="no"?>
<!DOCTYPE svg PUBLIC "-//W3C//DTD SVG 20010904//EN"
 "http://www.w3.org/TR/2001/REC-SVG-20010904/DTD/svg10.dtd">
<svg version="1.0" xmlns="http://www.w3.org/2000/svg"
 width="549.000000pt" height="549.000000pt" viewBox="0 0 549.000000 549.000000"
 preserveAspectRatio="xMidYMid meet">
<metadata>
Created by potrace 1.14, written by Peter Selinger 2001-2017
</metadata>
<g transform="translate(0.000000,549.000000) scale(0.100000,-0.100000)"
fill="#000000" stroke="none">
<path d="M1710 3552 c0 -14 13 -21 59 -30 32 -7 66 -20 75 -31 28 -31 43 -131
126 -841 44 -377 83 -695 85 -707 4 -16 13 -23 29 -23 20 0 51 59 293 556 148
306 274 556 279 557 5 0 36 -249 69 -554 l60 -554 25 -3 c24 -2 48 42 410 737
211 407 399 761 418 787 24 33 49 53 83 67 33 14 49 27 49 39 0 17 -15 18
-230 18 -218 0 -230 -1 -230 -19 0 -15 10 -19 51 -24 92 -11 118 -44 104 -133
-7 -48 -484 -1005 -501 -1006 -10 -1 -102 894 -103 999 -1 82 26 116 104 134
42 9 55 16 55 31 0 17 -15 18 -290 18 -276 0 -290 -1 -290 -19 0 -14 10 -19
48 -24 60 -7 94 -22 111 -50 8 -11 22 -73 32 -137 l18 -115 -211 -427 c-117
-235 -213 -426 -215 -424 -2 2 -28 233 -58 512 -57 534 -58 566 -17 606 10 11
46 24 80 31 48 9 62 16 62 29 0 17 -19 18 -290 18 -273 0 -290 -1 -290 -18z"/>
</g>
</svg>
